<svg xmlns="http://www.w3.org/2000/svg" viewBox="0 0 1600 1000" role="img" aria-label="MATTBEAR neon ecosystem city background">
  <defs>
    <linearGradient id="sky" x1="0" y1="0" x2="1" y2="1">
      <stop offset="0" stop-color="#242933"/>
      <stop offset="0.45" stop-color="#2b2f3a"/>
      <stop offset="1" stop-color="#191d26"/>
    </linearGradient>
    <linearGradient id="rainbow" x1="0" y1="0" x2="1" y2="0">
      <stop offset="0" stop-color="#ff2d55"/>
      <stop offset="0.16" stop-color="#ff8a00"/>
      <stop offset="0.32" stop-color="#ffd600"/>
      <stop offset="0.48" stop-color="#39ff14"/>
      <stop offset="0.64" stop-color="#00e5ff"/>
      <stop offset="0.80" stop-color="#0066ff"/>
      <stop offset="1" stop-color="#ff00f5"/>
    </linearGradient>
    <radialGradient id="nebula" cx="50%" cy="12%" r="70%">
      <stop offset="0" stop-color="#ff3bdc" stop-opacity="0.55"/>
      <stop offset="0.28" stop-color="#35d9ff" stop-opacity="0.35"/>
      <stop offset="0.55" stop-color="#39ff92" stop-opacity="0.18"/>
      <stop offset="1" stop-color="#000000" stop-opacity="0"/>
    </radialGradient>
    <filter id="glow" x="-30%" y="-30%" width="160%" height="160%">
      <feGaussianBlur stdDeviation="5" result="blur"/>
      <feMerge><feMergeNode in="blur"/><feMergeNode in="SourceGraphic"/></feMerge>
    </filter>
    <pattern id="scan" width="8" height="8" patternUnits="userSpaceOnUse">
      <rect width="8" height="1" fill="#ffffff" opacity="0.06"/>
    </pattern>
  </defs>
  <rect width="1600" height="1000" fill="url(#sky)"/>
  <rect width="1600" height="1000" fill="url(#nebula)"/>
  <g opacity="0.7">
    <circle cx="260" cy="110" r="1.6" fill="#9be7ff"/><circle cx="420" cy="170" r="1.2" fill="#fff"/><circle cx="760" cy="95" r="1.4" fill="#fff"/><circle cx="1020" cy="150" r="1.7" fill="#9be7ff"/><circle cx="1320" cy="100" r="1.5" fill="#fff"/>
    <circle cx="1180" cy="220" r="1.3" fill="#fff"/><circle cx="600" cy="210" r="1.4" fill="#fff"/><circle cx="1460" cy="245" r="1.1" fill="#fff"/>
  </g>
  <path d="M0 520 C260 390 410 470 650 360 C870 260 1030 330 1260 240 C1440 170 1540 220 1600 190 L1600 0 L0 0 Z" fill="#b02cff" opacity="0.12"/>
  <path d="M0 560 C270 430 520 480 740 370 C940 270 1090 360 1320 250 C1460 190 1540 210 1600 190" fill="none" stroke="url(#rainbow)" stroke-width="3" opacity="0.42" filter="url(#glow)"/>
  <g fill="#111722" stroke="#3e4a5a" stroke-width="2" opacity="0.92">
    <rect x="0" y="610" width="95" height="270"/><rect x="110" y="540" width="90" height="340"/><rect x="225" y="610" width="120" height="270"/><rect x="370" y="480" width="85" height="400"/><rect x="485" y="560" width="110" height="320"/><rect x="620" y="420" width="95" height="460"/><rect x="742" y="500" width="100" height="380"/><rect x="875" y="455" width="130" height="425"/><rect x="1035" y="520" width="95" height="360"/><rect x="1160" y="440" width="105" height="440"/><rect x="1300" y="565" width="120" height="315"/><rect x="1450" y="500" width="120" height="380"/>
  </g>
  <g opacity="0.55">
    <g fill="#35d9ff"><rect x="132" y="570" width="10" height="10"/><rect x="160" y="594" width="10" height="10"/><rect x="392" y="510" width="10" height="10"/><rect x="650" y="455" width="10" height="10"/><rect x="910" y="488" width="10" height="10"/><rect x="1190" y="470" width="10" height="10"/></g>
    <g fill="#ff3bdc"><rect x="255" y="642" width="10" height="10"/><rect x="515" y="590" width="10" height="10"/><rect x="775" y="532" width="10" height="10"/><rect x="1055" y="552" width="10" height="10"/><rect x="1480" y="532" width="10" height="10"/></g>
    <g fill="#ffd600"><rect x="35" y="650" width="10" height="10"/><rect x="430" y="535" width="10" height="10"/><rect x="690" y="485" width="10" height="10"/><rect x="1230" y="498" width="10" height="10"/></g>
  </g>
  <g filter="url(#glow)">
    <rect x="72" y="145" width="330" height="250" rx="18" fill="#181d27" stroke="url(#rainbow)" stroke-width="4" opacity="0.86"/>
    <text x="237" y="260" text-anchor="middle" font-family="Arial Black, Impact, sans-serif" font-size="54" fill="url(#rainbow)" letter-spacing="2">MATTBEAR</text>
    <text x="237" y="314" text-anchor="middle" font-family="Arial, sans-serif" font-size="24" fill="#f7f9ff" letter-spacing="8">WAKE UP. STAY UP.</text>
    <path d="M190 190 q47 -44 94 0" fill="none" stroke="#35d9ff" stroke-width="8" opacity="0.75"/>
    <circle cx="195" cy="198" r="28" fill="none" stroke="#ff3bdc" stroke-width="6"/><circle cx="280" cy="198" r="28" fill="none" stroke="#39ff92" stroke-width="6"/>
  </g>
  <g filter="url(#glow)">
    <rect x="1125" y="420" width="360" height="160" rx="18" fill="#181d27" stroke="url(#rainbow)" stroke-width="4" opacity="0.86"/>
    <text x="1305" y="500" text-anchor="middle" font-family="Arial Black, Impact, sans-serif" font-size="58" fill="url(#rainbow)" letter-spacing="1">MATTBEAR</text>
    <text x="1305" y="548" text-anchor="middle" font-family="Arial, sans-serif" font-size="22" fill="#f7f9ff" letter-spacing="8">CREATIVE SYSTEMS</text>
  </g>
  <g opacity="0.88" filter="url(#glow)">
    <rect x="670" y="780" width="260" height="60" rx="18" fill="#161b26" stroke="#ff3bdc"/>
    <text x="800" y="818" text-anchor="middle" font-family="Arial, sans-serif" font-size="20" fill="#f7f9ff" letter-spacing="6">MUSIC • GAMES • CREATION</text>
  </g>
  <rect width="1600" height="1000" fill="url(#scan)" opacity="0.65"/>
  <rect width="1600" height="1000" fill="#000" opacity="0.06"/>
</svg>
