<svg xmlns="http://www.w3.org/2000/svg" viewBox="0 0 1600 1000" preserveAspectRatio="xMidYMid slice"><defs><linearGradient id="sky" x1="0" x2="1" y1="0" y2="1"><stop offset="0" stop-color="#070914"/><stop offset=".28" stop-color="#23003f"/><stop offset=".52" stop-color="#051b3a"/><stop offset=".74" stop-color="#07131f"/><stop offset="1" stop-color="#03050b"/></linearGradient><linearGradient id="rainbow" x1="0" x2="1"><stop offset="0" stop-color="#ff2b75"/><stop offset=".18" stop-color="#ff9f1c"/><stop offset=".34" stop-color="#fff33b"/><stop offset=".5" stop-color="#39ff14"/><stop offset=".66" stop-color="#00e5ff"/><stop offset=".82" stop-color="#2575ff"/><stop offset="1" stop-color="#d227ff"/></linearGradient><filter id="glow"><feGaussianBlur stdDeviation="5" result="b"/><feMerge><feMergeNode in="b"/><feMergeNode in="SourceGraphic"/></feMerge></filter><filter id="soft"><feGaussianBlur stdDeviation="24"/></filter><pattern id="scan" width="4" height="4" patternUnits="userSpaceOnUse"><path d="M0 0h4v1H0z" fill="#fff" opacity=".055"/></pattern></defs><rect width="1600" height="1000" fill="url(#sky)"/><g opacity=".85" filter="url(#soft)"><path d="M150 240C340 60 480 110 640 250s320 90 480-60 260-90 360 10v220H120z" fill="#ff2b75" opacity=".45"/><path d="M220 300c220-230 420-160 530 10 110 170 290 190 530-40 120-115 230-75 310 20v230H150z" fill="#00e5ff" opacity=".34"/><path d="M410 190c240-100 380-10 520 120s300 70 440-50v260H250z" fill="#39ff14" opacity=".18"/></g><g opacity=".7"><circle cx="120" cy="80" r="2" fill="#fff"/><circle cx="260" cy="140" r="3" fill="#00e5ff"/><circle cx="470" cy="70" r="2" fill="#fff"/><circle cx="820" cy="100" r="3" fill="#fff"/><circle cx="1030" cy="160" r="2" fill="#ff2b75"/><circle cx="1330" cy="90" r="3" fill="#fff"/><circle cx="1490" cy="200" r="2" fill="#00e5ff"/></g><g transform="translate(0 355)"><rect y="360" width="1600" height="285" fill="#02040a"/><g fill="#07101c" stroke="#18263f" stroke-width="2"><rect x="80" y="115" width="120" height="530"/><rect x="230" y="55" width="80" height="590"/><rect x="345" y="175" width="110" height="470"/><rect x="490" y="-10" width="145" height="655"/><rect x="670" y="90" width="100" height="555"/><rect x="805" y="-55" width="120" height="700"/><rect x="955" y="60" width="92" height="585"/><rect x="1080" y="5" width="160" height="640"/><rect x="1280" y="130" width="96" height="515"/><rect x="1410" y="20" width="130" height="625"/></g><g fill="#ff9f1c" opacity=".85"><rect x="102" y="160" width="12" height="20"/><rect x="142" y="210" width="12" height="20"/><rect x="262" y="110" width="10" height="18"/><rect x="520" y="40" width="12" height="18"/><rect x="570" y="210" width="12" height="18"/><rect x="835" y="10" width="12" height="18"/><rect x="883" y="180" width="12" height="18"/><rect x="1120" y="65" width="14" height="18"/><rect x="1174" y="250" width="14" height="18"/><rect x="1450" y="80" width="12" height="18"/></g><path d="M0 420 C260 380 420 490 690 430s450-25 910 35v180H0z" fill="#06101b" opacity=".9"/><path d="M0 455 C240 410 460 530 720 470s450-50 880 20" fill="none" stroke="url(#rainbow)" stroke-width="5" opacity=".45" filter="url(#glow)"/></g><rect width="1600" height="1000" fill="url(#scan)"/><rect x="20" y="20" width="1560" height="960" fill="none" stroke="url(#rainbow)" stroke-width="3" opacity=".55" rx="28"/></svg>